PathFileType	4	(X/Y/Z)	path1_05_0-945.trc
DataRate	CameraRate	NumFrames	NumMarkers	Units	OrigDataRate	OrigDataStartFrame	OrigNumFrames
30	30	5	22	m	30	590	945
Frame#	Time	Hip			RHip			RKnee			RAnkle			RBigToe			RSmallToe			RHeel			LHip			LKnee			LAnkle			LBigToe			LSmallToe			LHeel			Neck			Head			Nose			RShoulder			RElbow			RWrist			LShoulder			LElbow			LWrist		
		X1	Y1	Z1	X2	Y2	Z2	X3	Y3	Z3	X4	Y4	Z4	X5	Y5	Z5	X6	Y6	Z6	X7	Y7	Z7	X8	Y8	Z8	X9	Y9	Z9	X10	Y10	Z10	X11	Y11	Z11	X12	Y12	Z12	X13	Y13	Z13	X14	Y14	Z14	X15	Y15	Z15	X16	Y16	Z16	X17	Y17	Z17	X18	Y18	Z18	X19	Y19	Z19	X20	Y20	Z20	X21	Y21	Z21	X22	Y22	Z22
591	19.7	-1.1001546233351984	0.8265751540815971	0.2456098535982797	-1.099263921769129	0.8180162808862387	0.3323409339210944	-0.9546408380719432	0.4970593676624749	0.3177758034844692	-1.2158744587978418	0.211720213606378	0.3172566803029031	-1.1351674770727538	0.04357076013437787	0.33425503983139165	-1.1642116538565517	0.05879155603175701	0.3857361934119471	-1.28201956262305	0.17403929443333557	0.305440150016796	-1.0886052531467423	0.8125943044148517	0.1637050466893422	-1.0693205506436942	0.46255422066452484	0.18337057901788636	-1.1591167180364623	0.10170769162524267	0.172360612731395	-0.9973420047772618	0.02215790438835756	0.17876041815251625	-1.012559860655301	0.026132745656435634	0.1385928948733185	-1.2155496026214179	0.031103041175176274	0.17586006200194937	-1.0674997114005924	1.4510259808794561	0.20840288181185743	-0.9753445830014892	1.708954619210218	0.19256585410800794	-0.9217575478491186	1.5567204243481774	0.21011680368840574	-1.1229743161172923	1.3608430161103189	0.3681253118021108	-1.1351909221613885	1.0749141326517933	0.4204664281245183	-1.0447165117575001	0.8763401697259082	0.45260391563664426	-1.1065475649770942	1.3488400878528026	0.015314914218180231	-1.0345428147676146	1.0624975231713485	0.02575503023026842	-0.9743932583136536	0.8701183207401509	0.010722151705585457
592	19.733333333333334	-1.0735410772087433	0.8290412231380825	0.24632095710520138	-1.0719092696505292	0.8191210400442701	0.33200124250722396	-0.9099985283567914	0.5028393602840584	0.3180278596275128	-1.1301305664019332	0.18558090388013646	0.31965771614001176	-1.0150611494478416	0.037701893410009506	0.3328525745392295	-1.054885657961159	0.06097117153529384	0.3882302189375249	-1.2034723788186106	0.12115370579691202	0.3101128760769737	-1.0631342200843845	0.8136998106764817	0.15804545864936434	-1.06198630285268	0.46074248555417546	0.18451150194175628	-1.1600620095292837	0.10337232645175794	0.17724259290247008	-1.0011447551218995	0.012627463789197246	0.20848486025082924	-1.035639213043473	0.014910780834653838	0.15384520547877104	-1.2160520873107707	0.030689906743325033	0.1783977740940694	-1.0413028619589568	1.4499695291359447	0.2098997443507482	-0.9484463474221819	1.709301111532794	0.20333398211004347	-0.895603689479196	1.5553788729589164	0.21444556608414025	-1.100390223926744	1.358806960832078	0.3619944170977121	-1.111098272585708	1.076984001063482	0.4200354572385706	-1.0161736478787902	0.880924715483483	0.4526298924570469	-1.077689275604369	1.34823478984177	0.015126083014224098	-1.006605071400914	1.0641406081338278	0.023969399981217054	-0.9373827068203621	0.8752377328015947	0.008790048770149949
593	19.766666666666666	-1.045622044530325	0.8270381727285792	0.24598461419375298	-1.0431588931215303	0.8203463170954006	0.3339353721185974	-0.8661581808530628	0.5048712928268306	0.3207898649612135	-1.045406534658916	0.16492286359422062	0.31558520565000625	-0.9169835086012413	0.05200709320954408	0.3445435903935422	-0.9494681153730848	0.05926963235973971	0.3943580456492501	-1.1150263094305268	0.11140910585475958	0.32340291882240985	-1.0371438906201005	0.8134568412222223	0.15730214289382427	-1.040849423377949	0.46104022244902276	0.18838171563339443	-1.151609913741074	0.09962123192666486	0.17813067788180623	-0.9851701279298877	0.017035625679119353	0.19863896594234876	-1.0191674467929754	0.022112450293034568	0.14021852570400667	-1.205399462578187	0.047076002375461945	0.1689744002452623	-1.0135357083466485	1.447236332609525	0.20891282270779588	-0.9175924640847876	1.707682860178491	0.2138304483073295	-0.8695363121421105	1.5506921284032114	0.21047229717007385	-1.072819687063045	1.357408367100135	0.3655655390689938	-1.0858428882986277	1.0764091107102252	0.4185729008125116	-0.9960616087961248	0.8802761469448799	0.4572509805394476	-1.0490066818920143	1.3463847419682677	0.012981134086233845	-0.9792563445205389	1.0627588331323032	0.021649354482911335	-0.901893318670135	0.874662532718798	0.006898393939685429
594	19.8	-1.0162273931470178	0.8265560771086286	0.24241873563143765	-1.0011627639012697	0.8199793379523942	0.3313403165416113	-0.833809393612878	0.5097188854155644	0.31845204370318697	-0.9588002843437284	0.1584616567527651	0.3312181536305577	-0.8011360200627408	0.04609317056453546	0.34712620138097555	-0.8348809626039643	0.04991096107739056	0.40620163337735216	-1.0063466232592904	0.08787762954143559	0.3338192238381217	-1.0123507404619965	0.810785037273915	0.16218370295580123	-1.0389303605809457	0.4578946807752607	0.1849980921422343	-1.159192724061322	0.1053241748468537	0.15791505972010453	-0.9790385331826786	0.01273658682062273	0.1931402739484717	-1.0147648724415246	0.02169501993134688	0.1415891799854053	-1.2077601815513441	0.04074072568897908	0.17281142430130975	-0.9824064951061381	1.4457637346645424	0.2091423916753166	-0.890052393061318	1.7065165305133467	0.21587257081153025	-0.8375104128102615	1.5496129071959996	0.21170195604737627	-1.0426843264576837	1.3569192235494092	0.36830073646438455	-1.0602639185770746	1.0606245944582637	0.4684170981919743	-0.9616853463839162	0.8705371535935259	0.4701410339519796	-0.9700304853509933	1.3272063826948064	0.06743732965952522	-0.9423265763984373	1.0617528894772152	0.02482371947201285	-0.8661159653475772	0.8757015753990752	0.006884673234456748
595	19.833333333333332	-0.9842376485444299	0.8242517263690516	0.24605900853735152	-0.9630802708984347	0.815336686068573	0.33217234246869054	-0.8139403696217518	0.5304213037935308	0.3287010861240744	-0.8606556549012321	0.15855734776120425	0.3352492414585631	-0.6621486990780914	0.04281733604661456	0.33474201518223	-0.6999945563426521	0.04100988914695285	0.3820075865964022	-0.8988927161631356	0.07954159635495289	0.34038494457311264	-0.9882659025744813	0.804933956551943	0.1653857585439002	-1.049609332057119	0.4746328325266392	0.1838247416954565	-1.1590040334740905	0.10904827860889885	0.1564195523164375	-0.9917976595549688	0.013077155968775673	0.20637313387366632	-1.0169898142593914	0.023022946064661046	0.14796778525387735	-1.2139496227447937	0.032765273565557335	0.1720706694665229	-0.9524802464304444	1.4412422119561654	0.20941024593810761	-0.8594661546038873	1.7022775142796014	0.22033969861601793	-0.8074167295090027	1.542302571060325	0.21715303665373376	-1.0125766505943388	1.3495999048840606	0.369034882817832	-1.0308740287459583	1.0680709463411504	0.422819541252227	-0.9525612040218456	0.8700639304343052	0.46162038502059033	-0.988408585984929	1.3362663620980026	0.015138897822964677	-0.9123171403561539	1.061176070182275	0.024192513169287198	-0.8335402598522513	0.8769640241165725	0.007242054804979979
